# xmcd CD database file
#
# Track frame offsets:
#	150
#	23922
#	38130
#
# Disc length: 808 seconds
#
# Revision: 0
# Processed by: cddbd v1.5PL3 Copyright (c) Steve Scherf et al.
# Submitted via: CDex 1.51
#
DISCID=1b032603
DTITLE=相川七瀬 - Shock of Love
DYEAR=2003
DGENRE=JPop
TTITLE0=Shock of Love
TTITLE1=THAT DAY and THAT MOMENT
TTITLE2=不謹慎な望み
EXTD=YEAR: 2003
EXTT0=
EXTT1=
EXTT2=
PLAYORDER=
